<?xml version="1.0" encoding="utf-8"?>
<!-- Generator: Adobe Illustrator 25.2.0, SVG Export Plug-In . SVG Version: 6.00 Build 0)  -->
<svg version="1.1" id="Слой_1" xmlns="http://www.w3.org/2000/svg" xmlns:xlink="http://www.w3.org/1999/xlink" x="0px" y="0px"
	 viewBox="0 0 283.5 283.5" style="enable-background:new 0 0 283.5 283.5;" xml:space="preserve">
<style type="text/css">
	.st0{fill:#FFFFFF;}
</style>
<path d="M226.5,283.5H57c-31.5,0-57-25.5-57-57V57C0,25.5,25.5,0,57,0h169.5c31.5,0,57,25.5,57,57v169.5
	C283.5,257.9,257.9,283.5,226.5,283.5z"/>
<path class="st0" d="M199.6,149.2c-2.8-3.6-2-5.2,0-8.4c0,0,23.5-32.4,25.9-43.4l0,0c1.2-4,0-6.9-5.8-6.9h-19.2
	c-4.9,0-7.1,2.5-8.3,5.3c0,0-9.8,23.4-23.6,38.5c-4.5,4.4-6.5,5.8-9,5.8c-1.2,0-3.1-1.4-3.1-5.4V97.5c0-4.8-1.4-6.9-5.4-6.9H121
	c-3.1,0-4.9,2.2-4.9,4.3c0,4.5,6.9,5.6,7.6,18.4V141c0,6.1-1.1,7.2-3.6,7.2c-6.5,0-22.4-23.5-31.7-50.3c-1.9-5.2-3.7-7.3-8.7-7.3
	H60.6c-5.5,0-6.6,2.5-6.6,5.3c0,5,6.5,29.8,30.3,62.5c15.9,22.4,38.2,34.5,58.5,34.5c12.2,0,13.7-2.7,13.7-7.3
	c0-21.4-1.1-23.4,5-23.4c2.8,0,7.7,1.4,19.1,12.2c13,12.8,15.2,18.5,22.5,18.5h19.2c5.5,0,8.2-2.7,6.6-8
	C225.4,173.7,200.7,150.8,199.6,149.2z"/>
</svg>
