<?xml version="1.0" encoding="utf-8"?>
<!-- Generator: Adobe Illustrator 25.2.0, SVG Export Plug-In . SVG Version: 6.00 Build 0)  -->
<svg version="1.1" id="Слой_1" xmlns="http://www.w3.org/2000/svg" xmlns:xlink="http://www.w3.org/1999/xlink" x="0px" y="0px"
	 viewBox="0 0 283.5 283.5" style="enable-background:new 0 0 283.5 283.5;" xml:space="preserve">
<style type="text/css">
	.st0{fill:#FFFFFF;}
</style>
<path d="M226.5,283.5H57c-31.5,0-57-25.5-57-57V57C0,25.5,25.5,0,57,0h169.5c31.5,0,57,25.5,57,57v169.5
	C283.5,257.9,257.9,283.5,226.5,283.5z"/>
<path class="st0" d="M224.3,100.3c-2-7.4-7.8-13.2-15.2-15.2c-13.5-3.7-67.4-3.7-67.4-3.7s-53.9,0-67.4,3.5
	c-7.2,2-13.2,7.9-15.2,15.3c-3.5,13.5-3.5,41.4-3.5,41.4s0,28.1,3.5,41.4c2,7.4,7.8,13.2,15.2,15.2c13.6,3.7,67.4,3.7,67.4,3.7
	s53.9,0,67.4-3.5c7.4-2,13.2-7.8,15.2-15.2c3.5-13.5,3.5-41.4,3.5-41.4S228,113.8,224.3,100.3z M124.6,167.5v-51.6l44.8,25.8
	L124.6,167.5z"/>
</svg>
