<svg xmlns="http://www.w3.org/2000/svg" xml:space="preserve" id="Слой_1" x="0" y="0" style="enable-background:new 0 0 481.9 42.5" version="1.1" viewBox="0 0 481.9 42.5"><style>.st0{fill:#fd108d}</style><path d="M240.3 42.4V.6h2.9l16.6 24.6L276.4.6h2.9v41.8h-3.1V6.1L260 30.2h-.2L243.6 6.1v36.2h-3.3zm61.4 0V25.9L284.1.6h3.8L303.3 23 318.7.6h3.6l-17.5 25.1v16.7h-3.1zm25 0V.6h7.7l12.5 19.7L359.4.6h7.7v41.8h-7.2v-30l-13 19.5h-.2l-12.8-19.4v29.9h-7.2zm65 .1c-5.5 0-9.8-1.5-12.8-4.6-3.1-3.1-4.6-7.5-4.6-13.5V.6h7.2V24c0 3.8.9 6.7 2.7 8.7 1.9 2.1 4.4 3.1 7.7 3.1s5.8-1 7.7-2.9c1.9-1.9 2.7-4.8 2.7-8.6V.6h7.2v23.3c0 6-1.5 10.6-4.8 13.7-3.2 3.4-7.5 4.9-13 4.9zm39-.1c-6.5 0-12.3-2.2-17.1-6.7l4.3-5.1c4.1 3.6 8.4 5.3 13 5.3 2.2 0 3.9-.5 5.3-1.4 1.4-1 2.1-2.2 2.1-3.9 0-1.5-.7-2.7-1.9-3.6-1.2-.9-3.8-1.9-7.4-2.7-4.8-1.2-8.2-2.6-10.4-4.3-2.2-1.7-3.3-4.4-3.3-8s1.4-6.3 3.9-8.6 6-3.3 10.1-3.3c5.6 0 10.6 1.7 14.9 5.1l-3.9 5.5c-3.8-2.9-7.5-4.3-11.1-4.3-2.1 0-3.8.5-5 1.4-1.2 1-1.7 2.1-1.7 3.6s.7 2.9 2.1 3.8c1.4.9 3.9 1.7 7.9 2.7 4.6 1 7.9 2.6 10.1 4.4 2.1 1.9 3.3 4.4 3.3 7.7 0 3.8-1.4 6.8-4.1 9.1-3 2.2-6.6 3.3-11.1 3.3zm20.4-.2V.6h30.5v6.6h-23.3V18H479v6.6h-20.7v11.2h23.6v6.6l-30.8-.2zM9.2 23.2H5.8v8.5H.9V10.6h4.8v8.5h3.5l5.5-8.5H20l-6.9 10.2 7.1 10.9h-5.5l-5.5-8.5zM20.9 21.2c0-6.3 4.9-10.9 11.5-10.9S43.9 15 43.9 21.2c.1 6.3-4.8 10.9-11.4 10.9-6.7.1-11.6-4.7-11.6-10.9zm18.1 0c0-4-2.8-6.7-6.6-6.7s-6.6 2.7-6.6 6.7 2.8 6.7 6.6 6.7 6.6-2.7 6.6-6.7zM46.3 21.2c0-6.4 4.9-10.9 11.4-10.9 3.6 0 6.7 1.3 8.7 3.7l-3.1 3c-1.4-1.6-3.2-2.5-5.3-2.5-3.9 0-6.7 2.8-6.7 6.7 0 4 2.8 6.7 6.7 6.7 2.1 0 3.9-.8 5.3-2.5l3.1 2.9c-2 2.4-5 3.8-8.7 3.8-6.5.1-11.4-4.6-11.4-10.9zM88.8 31.7V19.1l-6.2 10.4h-2.2l-6.2-10.2v12.4h-4.6V10.6h4l7.9 13.1 7.8-13.1h4v21.1h-4.5zM115 27.9v3.9H98.6V10.6h15.9v3.9h-11.1v4.6h9.8v3.8h-9.8v4.9s11.6 0 11.6.1zM135 14.6h-6.7v17.1h-4.8V14.6h-6.7v-4H135v4zM138.1 10.6h4.8v13.7L153 10.6h4.6v21.1h-4.8V18l-10.1 13.7h-4.6V10.6zM171 23.2h-3.4v8.5h-4.8V10.6h4.8v8.5h3.5l5.5-8.5h5.2l-6.9 10.2 7.1 10.9h-5.5l-5.5-8.5z" class="st0"/><path d="M198.2 27.2h-9.8l-1.9 4.5h-5l9.4-21.1h4.8l9.4 21.1H200l-1.8-4.5zm-1.6-3.7-3.3-8.1-3.3 8.1h6.6z" class="st0"/></svg>